HIERARCHY
ROOT Hips
{
	OFFSET 0.000000 0.000000 0.000000
	CHANNELS 6 Xposition Yposition Zposition Zrotation Yrotation Xrotation 
	JOINT LHipJoint
	{
		OFFSET 0.000000 0.000000 0.000000
		CHANNELS 3 Zrotation Yrotation Xrotation
		JOINT LeftUpLeg
		{
			OFFSET 1.363060 -1.794630 0.839290
			CHANNELS 3 Zrotation Yrotation Xrotation
			JOINT LeftLeg
			{
				OFFSET 2.448110 -6.726130 0.000000
				CHANNELS 3 Zrotation Yrotation Xrotation
				JOINT LeftFoot
				{
					OFFSET 2.562200 -7.039590 0.000000
					CHANNELS 3 Zrotation Yrotation Xrotation
					JOINT LeftToeBase
					{
						OFFSET 0.157640 -0.433110 2.322550
						CHANNELS 3 Zrotation Yrotation Xrotation
						End Site
						{
							OFFSET 0.000000 0.000000 0.000000
						}
					}
				}
			}
		}
	}
	JOINT RHipJoint
	{
		OFFSET 0.000000 0.000000 0.000000
		CHANNELS 3 Zrotation Yrotation Xrotation
		JOINT RightUpLeg
		{
			OFFSET -1.305520 -1.794630 0.839290
			CHANNELS 3 Zrotation Yrotation Xrotation
			JOINT RightLeg
			{
				OFFSET -2.542530 -6.985550 0.000000
				CHANNELS 3 Zrotation Yrotation Xrotation
				JOINT RightFoot
				{
					OFFSET -2.568260 -7.056230 0.000000
					CHANNELS 3 Zrotation Yrotation Xrotation
					JOINT RightToeBase
					{
						OFFSET -0.164730 -0.452590 2.363150
						CHANNELS 3 Zrotation Yrotation Xrotation
						End Site
						{
							OFFSET 0.000000 0.000000 0.000000
						}
					}
				}
			}
		}
	}
}
MOTION
Frames: 11
Frame Time: 0.008333
-21.420043 16.398371 -2.949248 -39.125098 86.829197 -15.740483 -11.560910 2.678817 -1.683840 -3.917651 8.534792 -0.065435 -1.340443 0.007555 13.131003 1.520515 10.369728 -4.672943 0.458900 0.000000 -71.106100 7.787242 -0.066009 4.601847 5.841300 10.692180 -55.284558 2.094148 -1.185464 20.969495 -0.883521 -4.900361 7.001479 -2.342000 0.000000 -32.245900
-21.265921 16.406116 -2.915780 -44.887558 86.927216 -21.566034 -11.713542 2.635469 -1.692686 -3.297011 8.418749 -0.168999 -1.175514 0.137673 14.324622 1.514443 10.567498 -3.385227 0.712700 -0.000000 -73.464700 7.638680 -0.208695 4.462314 6.361998 10.775608 -55.224700 2.048117 -1.359564 22.480028 -0.945988 -5.056604 6.485153 -2.321800 -0.000000 -31.854799
-21.111930 16.416478 -2.881323 -50.421370 87.009578 -27.179726 -11.894600 2.593602 -1.700070 -2.682704 8.321438 -0.366998 -1.003237 0.277408 15.664576 1.511508 10.752083 -1.974679 0.988600 -0.000000 -75.597400 7.472038 -0.353907 4.315288 6.905258 10.825926 -55.039729 2.026685 -1.506975 23.840795 -0.995535 -5.136428 5.778657 -2.259500 0.000001 -31.470100
-20.958035 16.429261 -2.845437 -55.578234 87.073465 -32.423514 -12.091838 2.556851 -1.702699 -2.089366 8.242268 -0.677643 -0.826181 0.425044 17.155117 1.514863 10.927397 -0.441029 1.284700 -0.000000 -77.334100 7.300403 -0.493981 4.168538 7.453522 10.851393 -54.745850 2.024769 -1.627919 25.043796 -1.035075 -5.156922 4.926221 -2.165200 -0.000001 -31.088900
-20.804379 16.444302 -2.808010 -60.347637 87.119803 -37.279211 -12.295459 2.524017 -1.699421 -1.523651 8.183182 -1.115054 -0.646354 0.577201 18.797538 1.527569 11.095610 1.203287 1.596600 0.000001 -78.505300 7.132213 -0.625422 4.028748 7.994981 10.861427 -54.358412 2.037698 -1.723129 26.083356 -1.068864 -5.141161 3.975985 -2.051600 0.000000 -30.694300
-20.651271 16.461398 -2.768965 -64.711316 87.152178 -41.720720 -12.495692 2.492508 -1.688849 -0.996020 8.139976 -1.687376 -0.466462 0.729356 20.587522 1.553322 11.265936 2.928181 1.918800 -0.000001 -78.948400 6.974728 -0.745650 3.901961 8.516042 10.863624 -53.897702 2.060339 -1.794049 26.960333 -1.101117 -5.112049 2.976806 -1.930200 0.000000 -30.283600
-20.499108 16.480416 -2.728583 -68.728452 87.172971 -45.802843 -12.687314 2.457075 -1.671159 -0.510176 8.110119 -2.396701 -0.289628 0.876778 22.517807 1.594831 11.447701 4.683655 2.243800 -0.000001 -78.524800 6.829892 -0.855338 3.792466 9.010189 10.867312 -53.378615 2.088694 -1.842118 27.676023 -1.136129 -5.094005 1.973538 -1.811700 0.000000 -29.851400
-20.348330 16.501195 -2.687111 -72.419023 87.184521 -49.541724 -12.865195 2.413118 -1.646601 -0.073215 8.087017 -3.239715 -0.120154 1.015430 24.576678 1.653796 11.656161 6.401795 2.565000 -0.000000 -77.142400 6.699374 -0.954930 3.703226 9.470535 10.878939 -52.817645 2.119009 -1.869371 28.237700 -1.177042 -5.105828 1.003187 -1.703600 0.000001 -29.405799
-20.199097 16.523616 -2.644786 -75.769592 87.190387 -52.922706 -13.023858 2.357327 -1.616792 0.304708 8.063079 -4.207588 0.036813 1.143042 26.748687 1.730009 11.909507 8.001692 2.877100 0.000000 -74.770799 6.585280 -1.044015 3.634863 9.889935 10.901265 -52.229254 2.147925 -1.878400 28.657823 -1.225530 -5.158687 0.092348 -1.609400 0.000000 -28.964300
-20.051766 16.547595 -2.602077 -78.817556 87.190943 -55.984830 -13.162397 2.286702 -1.584762 0.623091 8.036453 -5.287979 0.177122 1.259578 29.016208 1.820701 12.220862 9.400797 3.175200 -0.000001 -71.477900 6.485620 -1.124505 3.586603 10.269526 10.938086 -51.619612 2.174083 -1.871268 28.945591 -1.282476 -5.259896 -0.742795 -1.531100 0.000000 -28.535500
-19.907031 16.573061 -2.559345 -81.577560 87.186487 -58.746423 -13.280342 2.200286 -1.554200 0.881894 8.005867 -6.465161 0.298069 1.367218 31.357347 1.921908 12.602044 10.528100 3.455900 0.000001 -67.436500 6.398713 -1.197587 3.555911 10.611297 10.990549 -50.990309 2.196880 -1.850061 29.111492 -1.347519 -5.409669 -1.495845 -1.468000 0.000001 -28.127400
